# xmcd
#
# Track frame offsets:
#	150
#	128780
#	179025
#	281402
#
# Disc length: 4177 seconds
#
# Revision: 1
# Processed by: cddbd v1.5.1PL0 Copyright (c) Steve Scherf et al.
# Submitted via: CDex 1.50Beta5
#
DISCID=37104f04
DTITLE=分内野下座連 - 佐原ばやし
DYEAR=1900
DGENRE=World
TTITLE0=さんきり　他１０曲
TTITLE1=渡り、巣ごもり
TTITLE2=巣ごもりくずし、他１４曲
TTITLE3=船頭小唄他　４曲
EXTD=
EXTT0=
EXTT1=
EXTT2=
EXTT3=
PLAYORDER=
